<?xml version="1.0" encoding="utf-8"?>
<!-- Generator: Adobe Illustrator 26.5.1, SVG Export Plug-In . SVG Version: 6.00 Build 0)  -->
<svg version="1.1" id="Layer_1" xmlns="http://www.w3.org/2000/svg" xmlns:xlink="http://www.w3.org/1999/xlink" x="0px" y="0px"
	 viewBox="0 0 304.58 29.99" style="enable-background:new 0 0 304.58 29.99;" xml:space="preserve">
<style type="text/css">
	.st0{fill:#F4F0E4;}
	.st1{fill:url(#SVGID_1_);}
	.st2{fill:url(#SVGID_00000004534661543539375720000005318220007506409407_);}
	.st3{fill:#605D53;}
	.st4{fill:#FFFFFF;}
</style>
<g>
	<path class="st4" d="M19.86,1.56C8.09,1.56,0,7.03,0,15.19c0,8.3,8.62,13.24,19.33,13.24c11.74,0,19.86-5.57,19.86-13.73
		C39.2,6.5,30.58,1.56,19.86,1.56z M19.69,26.85c-8.72,0-15.03-4.45-15.03-11.94c0-7.74,6.62-11.77,14.82-11.77
		c8.72,0,15.06,4.41,15.06,11.94C34.54,22.79,27.88,26.85,19.69,26.85z"/>
	<path class="st4" d="M72.06,2.37c0.39,7.57,0.25,12.96,0.14,19.79c-2.66-1.89-6.55-4.87-10.72-7.74
		C54.58,9.48,46.67,3.14,44.81,1.63V1.56h-0.49c0.32,8.72,0.49,18.88,0.1,26.06c0.74-0.14,1.93-0.14,2.66,0
		c-0.38-6.73-0.42-13.17-0.28-19.62c3.08,2.17,7.92,5.89,13.1,9.49c5.5,3.99,12.4,9.49,14.26,10.93h0.42
		c-0.35-9.81-0.35-18.11,0.14-26.06C74.02,2.51,72.76,2.51,72.06,2.37z"/>
	<path class="st4" d="M101.88,25.73H85.8c-0.04-3.4-0.21-6.87-0.21-10.3h11.14c1.54,0,5.67,0.04,6.97,0.39
		c-0.1-0.53-0.1-0.88-0.1-1.3c0-0.46,0-0.84,0.1-1.33c-1.3,0.32-5.43,0.39-6.97,0.39H85.59c0-3.08,0.17-6.27,0.21-9.35h17.16
		c1.79,0,4.34,0.18,4.9,1.02l0.32-0.07l-0.49-2.45c-0.07-0.25-0.21-0.35-0.49-0.35c-6.83,0-11.49,0.14-14.64,0.14
		c-3.43,0-7.81-0.1-11.24-0.14c0.18,2.31,0.39,3.99,0.39,12.47c0,6.87-0.24,10.44-0.39,12.79c3.33-0.04,7.64-0.14,10.96-0.14
		c3.54,0,8.16,0.14,14.47,0.14c0.6,0,0.74-0.04,0.98-0.56l1.33-2.8l-0.32-0.14C107.34,25.59,105.34,25.73,101.88,25.73z"/>
	<path class="st4" d="M149.03,26.78c-9.28,0-15.8-4.9-15.8-12.22c0-7.6,6.9-11.38,15.59-11.38c6.41,0,10.93,1.93,12.89,4.66
		l0.35-0.07l-0.6-3.29c-0.14-0.39-0.6-0.67-0.98-0.81c-3.54-1.51-7.25-2.1-11.56-2.1c-12.08,0-20.18,4.73-20.18,13.1
		c0,8.79,8.9,13.77,20.18,13.77c4.38,0,8.02-0.63,11.56-1.68c0.74-0.24,0.95-0.32,1.05-0.77l0.7-2.77l-0.35-0.14
		C158.74,25.59,154.43,26.78,149.03,26.78z"/>
	<path class="st4" d="M184.24,2.37c-0.46,0-1.37,0.1-2.17,0.1c-0.7,0-1.79-0.1-2.49-0.1v0.35c1.01,0.07,1.64,0.28,2.07,0.91
		c-4.97,7.6-11.21,16.71-16.39,23.99c0.67-0.14,2.49-0.14,3.15,0c1.44-2.42,3.05-5.04,4.69-7.67h18.49
		c1.44,2.56,2.84,5.11,4.24,7.67c2.31-0.14,3.01-0.14,5.32,0c-5.74-8.62-10.16-15.76-15.03-24.13
		C185.68,2.47,185.22,2.37,184.24,2.37z M174.29,18.06c2.8-4.41,5.71-8.86,8.37-12.86c2.8,4.34,5.39,8.62,7.85,12.86H174.29z"/>
	<path class="st4" d="M232.62,2.37c0.39,7.57,0.25,12.96,0.14,19.79c-2.66-1.89-6.55-4.87-10.72-7.74
		c-6.9-4.94-14.82-11.28-16.67-12.79V1.56h-0.49c0.32,8.72,0.49,18.88,0.1,26.06c0.74-0.14,1.93-0.14,2.66,0
		c-0.38-6.73-0.42-13.17-0.28-19.62c3.08,2.17,7.92,5.89,13.1,9.49c5.5,3.99,12.4,9.49,14.26,10.93h0.42
		c-0.35-9.81-0.35-18.11,0.14-26.06C234.58,2.51,233.32,2.51,232.62,2.37z"/>
	<path class="st4" d="M257.99,2.37c-0.46,0-1.37,0.1-2.17,0.1c-0.7,0-1.79-0.1-2.49-0.1v0.35c1.01,0.07,1.65,0.28,2.07,0.91
		c-4.97,7.6-11.21,16.71-16.39,23.99c0.67-0.14,2.49-0.14,3.15,0c1.44-2.42,3.05-5.04,4.69-7.67h18.49
		c1.44,2.56,2.84,5.11,4.24,7.67c2.31-0.14,3.01-0.14,5.32,0c-5.74-8.62-10.16-15.76-15.03-24.13
		C259.43,2.47,258.97,2.37,257.99,2.37z M248.04,18.06c2.8-4.41,5.71-8.86,8.37-12.86c2.8,4.34,5.39,8.62,7.85,12.86H248.04z"/>
	<path class="st4" d="M304.27,24.15c-1.43,1.51-2.35,1.58-4.13,1.58h-16.88c-0.11-2.21-0.21-5.57-0.21-10.89
		c0-8.48,0.21-10.16,0.39-12.47c-0.77,0.04-1.54,0.14-2.28,0.14c-0.73,0-1.54-0.1-2.28-0.14c0.18,2.31,0.39,3.99,0.39,12.47
		c0,6.87-0.25,10.44-0.39,12.79c1.33-0.04,2.98-0.14,4.31-0.14c0.63,0,0.17,0.1,19.12,0.14c0.42,0,0.53-0.07,0.67-0.32l1.61-2.98
		L304.27,24.15z"/>
</g>
</svg>
